<?xml version="1.0" encoding="utf-8"?>
<!-- Generator: Adobe Illustrator 22.1.0, SVG Export Plug-In . SVG Version: 6.00 Build 0)  -->
<svg version="1.1" id="Layer_1" xmlns="http://www.w3.org/2000/svg" xmlns:xlink="http://www.w3.org/1999/xlink" x="0px" y="0px"
	 viewBox="0 0 512 512" style="enable-background:new 0 0 512 512;" xml:space="preserve">
<g>
	<path d="M256,31C131.9,31,31,131.9,31,256s100.9,225,225,225s225-100.9,225-225S380.1,31,256,31z M256,450.9
		c-20.1,0-39.5-3.1-57.7-8.7c7.9-12.9,19.9-34.2,24.2-51.1c2.4-9.1,12.1-46.3,12.1-46.3c6.3,12.1,25,22.4,44.6,22.4
		c58.8,0,101.2-54.1,101.2-121.3c0-64.4-52.6-112.6-120.1-112.6c-84.1,0-128.8,56.5-128.8,118c0,28.6,15.2,64.2,39.5,75.5
		c3.7,1.8,5.6,1,6.5-2.6c0.6-2.7,4-15.9,5.5-22.1c0.4-1.9,0.3-3.7-1.3-5.6c-8.1-9.8-14.5-27.8-14.5-44.5c0-43,32.5-84.6,88-84.6
		c47.9,0,81.4,32.6,81.4,79.3c0,52.7-26.6,89.3-61.3,89.3c-19.2,0-33.5-15.8-28.8-35.2c5.5-23.2,16.2-48.2,16.2-64.9
		c0-14.9-8-27.4-24.7-27.4c-19.6,0-35.2,20.2-35.2,47.4c0,17.2,5.8,28.9,5.8,28.9s-19.4,81.6-22.9,96.9c-4,16.9-2.4,40.5-0.7,55.9
		C112.4,409.1,61,338.7,61,256c0-107.7,87.3-194.9,194.9-194.9S450.9,148.4,450.9,256S363.6,451,256,450.9L256,450.9z"/>
</g>
</svg>
